#Comment line ignore any data following # character 
#Hierarchical Translation and Rotation (.htr) file 
[Header]	
#Header keywords are followed by a single value 
FileType HTR		#Single word string
DataType HTRS		#Translation followed by rotation and scale data
FileVersion 1		#integer
NumSegments 84		#integer
NumFrames 2		#integer
DataFrameRate 30		#integer, data frame rate in this file
EulerRotationOrder ZYX
CalibrationUnits mm
RotationUnits Degrees
GlobalAxisofGravity Y
BoneLengthAxis Y
ScaleFactor 1.00
[SegmentNames&Hierarchy]
#CHILD	PARENT
MASTER GLOBAL
root MASTER
chest root
L_mid_tent01 root
R_mid_tent01 root
spine01 root
Bip01_Neck chest
L_humerus chest
R_humerus chest
weapon_bone chest
Bip01_Head Bip01_Neck
eye_left_bone Bip01_Head
eye_right_bone Bip01_Head
L_forearm L_humerus
L_front_hand L_forearm
L_weapon_bone L_forearm
L_front_hand01_01 L_front_hand
L_front_hand02_01 L_front_hand
L_front_hand03_01 L_front_hand
L_front_hand01_02 L_front_hand01_01
L_front_hand02_02 L_front_hand02_01
L_front_hand03_02 L_front_hand03_01
R_forearm R_humerus
R_front_hand R_forearm
R_weapon_bone R_forearm
R_front_hand01_01 R_front_hand
R_front_hand02_01 R_front_hand
R_front_hand03_01 R_front_hand
R_front_hand01_02 R_front_hand01_01
R_front_hand02_02 R_front_hand02_01
R_front_hand03_02 R_front_hand03_01
null_rope01_connect L_mid_tent01
Rope1_Seg01 null_rope01_connect
Rope1_Seg02 Rope1_Seg01
Rope1_Seg03 Rope1_Seg02
Rope1_Seg04 Rope1_Seg03
Rope1_Seg05 Rope1_Seg04
Rope1_Seg06 Rope1_Seg05
Rope1_Seg07 Rope1_Seg06
Rope1_Seg09 Rope1_Seg07
L_mid_hand01 Rope1_Seg09
L_mid_hand02 Rope1_Seg09
L_mid_hand03 Rope1_Seg09
null_rope02_connect R_mid_tent01
Rope2_Seg01 null_rope02_connect
Rope2_Seg02 Rope2_Seg01
Rope2_Seg03 Rope2_Seg02
Rope2_Seg04 Rope2_Seg03
Rope2_Seg05 Rope2_Seg04
Rope2_Seg06 Rope2_Seg05
Rope2_Seg07 Rope2_Seg06
Rope2_Seg09 Rope2_Seg07
R_mid_hand01 Rope2_Seg09
R_mid_hand02 Rope2_Seg09
R_mid_hand03 Rope2_Seg09
spine02 spine01
spine03 spine02
pelvis spine03
null_rope03_connect pelvis
null_rope04_connect pelvis
Rope3_Seg01 null_rope03_connect
Rope3_Seg02 Rope3_Seg01
Rope3_Seg03 Rope3_Seg02
Rope3_Seg04 Rope3_Seg03
Rope3_Seg05 Rope3_Seg04
Rope3_Seg06 Rope3_Seg05
Rope3_Seg07 Rope3_Seg06
Rope3_Seg08 Rope3_Seg07
Rope3_Seg09 Rope3_Seg08
R_rear_hand01 Rope3_Seg09
R_rear_hand02 Rope3_Seg09
R_rear_hand03 Rope3_Seg09
Rope4_Seg01 null_rope04_connect
Rope4_Seg02 Rope4_Seg01
Rope4_Seg03 Rope4_Seg02
Rope4_Seg04 Rope4_Seg03
Rope4_Seg05 Rope4_Seg04
Rope4_Seg06 Rope4_Seg05
Rope4_Seg07 Rope4_Seg06
Rope4_Seg08 Rope4_Seg07
Rope4_Seg09 Rope4_Seg08
L_rear_hand01 Rope4_Seg09
L_rear_hand02 Rope4_Seg09
L_rear_hand03 Rope4_Seg09
[BasePosition]
#SegmentName Tx, Ty, Tz, Rx, Ry, Rz, BoneLength
MASTER 0.000000 0.000000 0.000000 -90.000000 0.000000 0.000000 10.000000 
root 0.000000 0.000000 0.000000 0.000000 0.000000 0.000000 10.000000 
chest 0.000000 0.000000 0.000000 0.000000 0.000000 0.000000 10.000000 
L_mid_tent01 0.000000 0.000000 0.000000 0.000000 0.000000 0.000000 10.000000 
R_mid_tent01 0.000000 0.000000 0.000000 0.000000 0.000000 0.000000 10.000000 
spine01 0.000000 0.000000 0.000000 0.000000 0.000000 0.000000 10.000000 
Bip01_Neck 0.000000 0.000000 0.000000 0.000000 0.000000 0.000000 10.000000 
L_humerus 0.000000 0.000000 0.000000 0.000000 0.000000 0.000000 10.000000 
R_humerus 0.000000 0.000000 0.000000 0.000000 0.000000 0.000000 10.000000 
weapon_bone 0.000000 0.000000 0.000000 0.000000 0.000000 0.000000 10.000000 
Bip01_Head 0.000000 0.000000 0.000000 0.000000 0.000000 0.000000 10.000000 
eye_left_bone 0.000000 0.000000 0.000000 0.000000 0.000000 0.000000 10.000000 
eye_right_bone 0.000000 0.000000 0.000000 0.000000 0.000000 0.000000 10.000000 
L_forearm 0.000000 0.000000 0.000000 0.000000 0.000000 0.000000 10.000000 
L_front_hand 0.000000 0.000000 0.000000 0.000000 0.000000 0.000000 10.000000 
L_weapon_bone 0.000000 0.000000 0.000000 0.000000 0.000000 0.000000 10.000000 
L_front_hand01_01 0.000000 0.000000 0.000000 0.000000 0.000000 0.000000 10.000000 
L_front_hand02_01 0.000000 0.000000 0.000000 0.000000 0.000000 0.000000 10.000000 
L_front_hand03_01 0.000000 0.000000 0.000000 0.000000 0.000000 0.000000 10.000000 
L_front_hand01_02 0.000000 0.000000 0.000000 0.000000 0.000000 0.000000 10.000000 
L_front_hand02_02 0.000000 0.000000 0.000000 0.000000 0.000000 0.000000 10.000000 
L_front_hand03_02 0.000000 0.000000 0.000000 0.000000 0.000000 0.000000 10.000000 
R_forearm 0.000000 0.000000 0.000000 0.000000 0.000000 0.000000 10.000000 
R_front_hand 0.000000 0.000000 0.000000 0.000000 0.000000 0.000000 10.000000 
R_weapon_bone 0.000000 0.000000 0.000000 0.000000 0.000000 0.000000 10.000000 
R_front_hand01_01 0.000000 0.000000 0.000000 0.000000 0.000000 0.000000 10.000000 
R_front_hand02_01 0.000000 0.000000 0.000000 0.000000 0.000000 0.000000 10.000000 
R_front_hand03_01 0.000000 0.000000 0.000000 0.000000 0.000000 0.000000 10.000000 
R_front_hand01_02 0.000000 0.000000 0.000000 0.000000 0.000000 0.000000 10.000000 
R_front_hand02_02 0.000000 0.000000 0.000000 0.000000 0.000000 0.000000 10.000000 
R_front_hand03_02 0.000000 0.000000 0.000000 0.000000 0.000000 0.000000 10.000000 
null_rope01_connect 0.000000 0.000000 0.000000 0.000000 0.000000 0.000000 10.000000 
Rope1_Seg01 0.000000 0.000000 0.000000 0.000000 0.000000 0.000000 10.000000 
Rope1_Seg02 0.000000 0.000000 0.000000 0.000000 0.000000 0.000000 10.000000 
Rope1_Seg03 0.000000 0.000000 0.000000 0.000000 0.000000 0.000000 10.000000 
Rope1_Seg04 0.000000 0.000000 0.000000 0.000000 0.000000 0.000000 10.000000 
Rope1_Seg05 0.000000 0.000000 0.000000 0.000000 0.000000 0.000000 10.000000 
Rope1_Seg06 0.000000 0.000000 0.000000 0.000000 0.000000 0.000000 10.000000 
Rope1_Seg07 0.000000 0.000000 0.000000 0.000000 0.000000 0.000000 10.000000 
Rope1_Seg09 0.000000 0.000000 0.000000 0.000000 0.000000 0.000000 10.000000 
L_mid_hand01 0.000000 0.000000 0.000000 0.000000 0.000000 0.000000 10.000000 
L_mid_hand02 0.000000 0.000000 0.000000 0.000000 0.000000 0.000000 10.000000 
L_mid_hand03 0.000000 0.000000 0.000000 0.000000 0.000000 0.000000 10.000000 
null_rope02_connect 0.000000 0.000000 0.000000 0.000000 0.000000 0.000000 10.000000 
Rope2_Seg01 0.000000 0.000000 0.000000 0.000000 0.000000 0.000000 10.000000 
Rope2_Seg02 0.000000 0.000000 0.000000 0.000000 0.000000 0.000000 10.000000 
Rope2_Seg03 0.000000 0.000000 0.000000 0.000000 0.000000 0.000000 10.000000 
Rope2_Seg04 0.000000 0.000000 0.000000 0.000000 0.000000 0.000000 10.000000 
Rope2_Seg05 0.000000 0.000000 0.000000 0.000000 0.000000 0.000000 10.000000 
Rope2_Seg06 0.000000 0.000000 0.000000 0.000000 0.000000 0.000000 10.000000 
Rope2_Seg07 0.000000 0.000000 0.000000 0.000000 0.000000 0.000000 10.000000 
Rope2_Seg09 0.000000 0.000000 0.000000 0.000000 0.000000 0.000000 10.000000 
R_mid_hand01 0.000000 0.000000 0.000000 0.000000 0.000000 0.000000 10.000000 
R_mid_hand02 0.000000 0.000000 0.000000 0.000000 0.000000 0.000000 10.000000 
R_mid_hand03 0.000000 0.000000 0.000000 0.000000 0.000000 0.000000 10.000000 
spine02 0.000000 0.000000 0.000000 0.000000 0.000000 0.000000 10.000000 
spine03 0.000000 0.000000 0.000000 0.000000 0.000000 0.000000 10.000000 
pelvis 0.000000 0.000000 0.000000 0.000000 0.000000 0.000000 10.000000 
null_rope03_connect 0.000000 0.000000 0.000000 0.000000 0.000000 0.000000 10.000000 
null_rope04_connect 0.000000 0.000000 0.000000 0.000000 0.000000 0.000000 10.000000 
Rope3_Seg01 0.000000 0.000000 0.000000 0.000000 0.000000 0.000000 10.000000 
Rope3_Seg02 0.000000 0.000000 0.000000 0.000000 0.000000 0.000000 10.000000 
Rope3_Seg03 0.000000 0.000000 0.000000 0.000000 0.000000 0.000000 10.000000 
Rope3_Seg04 0.000000 0.000000 0.000000 0.000000 0.000000 0.000000 10.000000 
Rope3_Seg05 0.000000 0.000000 0.000000 0.000000 0.000000 0.000000 10.000000 
Rope3_Seg06 0.000000 0.000000 0.000000 0.000000 0.000000 0.000000 10.000000 
Rope3_Seg07 0.000000 0.000000 0.000000 0.000000 0.000000 0.000000 10.000000 
Rope3_Seg08 0.000000 0.000000 0.000000 0.000000 0.000000 0.000000 10.000000 
Rope3_Seg09 0.000000 0.000000 0.000000 0.000000 0.000000 0.000000 10.000000 
R_rear_hand01 0.000000 0.000000 0.000000 0.000000 0.000000 0.000000 10.000000 
R_rear_hand02 0.000000 0.000000 0.000000 0.000000 0.000000 0.000000 10.000000 
R_rear_hand03 0.000000 0.000000 0.000000 0.000000 0.000000 0.000000 10.000000 
Rope4_Seg01 0.000000 0.000000 0.000000 0.000000 0.000000 0.000000 10.000000 
Rope4_Seg02 0.000000 0.000000 0.000000 0.000000 0.000000 0.000000 10.000000 
Rope4_Seg03 0.000000 0.000000 0.000000 0.000000 0.000000 0.000000 10.000000 
Rope4_Seg04 0.000000 0.000000 0.000000 0.000000 0.000000 0.000000 10.000000 
Rope4_Seg05 0.000000 0.000000 0.000000 0.000000 0.000000 0.000000 10.000000 
Rope4_Seg06 0.000000 0.000000 0.000000 0.000000 0.000000 0.000000 10.000000 
Rope4_Seg07 0.000000 0.000000 0.000000 0.000000 0.000000 0.000000 10.000000 
Rope4_Seg08 0.000000 0.000000 0.000000 0.000000 0.000000 0.000000 10.000000 
Rope4_Seg09 0.000000 0.000000 0.000000 0.000000 0.000000 0.000000 10.000000 
L_rear_hand01 0.000000 0.000000 0.000000 0.000000 0.000000 0.000000 10.000000 
L_rear_hand02 0.000000 0.000000 0.000000 0.000000 0.000000 0.000000 10.000000 
L_rear_hand03 0.000000 0.000000 0.000000 0.000000 0.000000 0.000000 10.000000 
#Beginning of Data. Separated by tabs
#Fr	Tx	Ty	Tz	Rx	Ry	Rz	SF
[MASTER]
19 0.000000 0.000000 0.000000 0.001660 0.001660 0.001660 0.000000
20 0.000000 0.000000 0.000000 0.001660 0.001660 0.001660 0.000000
[root]
19 -56.637775 -2.380655 1117.245239 -87.511673 -29.932594 -87.328110 1118.682373
20 -57.819340 -2.319580 1158.626221 -87.429131 -29.228477 -87.254181 1160.070313
[chest]
19 -84.512650 -34.090519 0.000000 0.671568 -0.773386 -148.295670 91.129311
20 -84.512650 -34.090519 0.000000 0.449991 -0.618364 -151.066376 91.129311
[L_mid_tent01]
19 27.327875 22.161283 -250.098465 -3.059596 23.671204 70.029884 252.561234
20 27.323156 22.163973 -250.068390 -0.486014 27.981363 74.659843 252.531189
[R_mid_tent01]
19 23.228794 24.509907 226.238495 174.051575 -35.665871 72.706856 228.744751
20 23.228794 24.509907 226.238495 169.697571 -40.131760 78.179672 228.744751
[spine01]
19 -0.361383 -0.195265 0.000000 0.001919 0.001352 19.681637 0.410763
20 -0.361383 -0.195265 0.000000 0.001916 0.001356 19.437305 0.410763
[Bip01_Neck]
19 165.484543 71.581718 0.000119 175.896118 1.177290 24.871183 180.302734
20 165.484543 71.581718 0.000119 175.896118 1.177290 24.871183 180.302734
[L_humerus]
19 -13.983130 -135.272980 -120.471481 178.774933 1.586942 -85.714233 181.680161
20 -13.983130 -135.272980 -120.471481 -178.281891 1.886866 -87.432632 181.680161
[R_humerus]
19 -13.983309 -135.273102 125.287651 -177.927048 -1.023230 -88.291855 184.909012
20 -13.983309 -135.273102 125.287651 -177.927048 -1.023230 -88.292023 184.909012
[weapon_bone]
19 235.964890 -300.705902 0.000000 0.000000 -89.951546 -128.212341 382.234833
20 235.964890 -300.705902 0.000000 0.000000 -89.951546 -128.212341 382.234833
[Bip01_Head]
19 102.819817 23.735590 5.410279 3.150731 3.423701 -20.839088 105.662506
20 102.819817 23.735600 5.410272 3.150731 3.423701 -20.839088 105.662506
[eye_left_bone]
19 -24.626970 125.451866 -64.772606 0.000000 -90.000000 -99.840431 143.318359
20 -24.626970 125.451866 -64.772606 0.000000 -90.000000 -99.840431 143.318359
[eye_right_bone]
19 -24.626970 125.451866 64.327362 0.000000 -89.960434 80.159386 143.117676
20 -24.626970 125.451866 64.327362 0.000000 -89.960434 80.159386 143.117676
[L_forearm]
19 322.776093 0.000000 -0.000119 0.000017 0.002347 -89.149834 322.776093
20 322.776093 0.000000 -0.000119 0.000017 0.002347 -89.149834 322.776093
[L_front_hand]
19 241.149185 -0.042021 -3.300071 -177.841537 0.691416 -99.176163 241.171753
20 241.149185 -0.042021 -3.300071 -177.844284 0.705099 -99.532700 241.171753
[L_weapon_bone]
19 154.027084 15.538484 0.000348 0.002035 0.001170 30.193655 154.808884
20 153.844482 16.853737 0.000381 0.002023 0.001191 29.015453 154.764893
[L_front_hand01_01]
19 86.095154 20.947098 -0.655860 0.405585 -0.442306 -4.620490 88.609184
20 86.095154 20.947098 -0.655860 0.405585 -0.442306 -4.620490 88.609184
[L_front_hand02_01]
19 86.935165 -11.437475 24.513514 116.959450 3.630817 1.495453 91.046425
20 86.935165 -11.437475 24.513514 116.959450 3.630817 1.495453 91.046425
[L_front_hand03_01]
19 86.637497 -14.123976 -20.424902 -118.420097 -4.656303 -0.152527 90.126129
20 86.637497 -14.123976 -20.424902 -118.420097 -4.656303 -0.152527 90.126129
[L_front_hand01_02]
19 71.020905 -0.000179 0.000030 0.000004 -0.000005 -8.379269 71.020905
20 71.020905 -0.000179 0.000030 0.000004 -0.000005 -8.379269 71.020905
[L_front_hand02_02]
19 71.020927 -0.000119 0.000060 -0.000005 -0.000004 -8.379259 71.020927
20 71.020927 -0.000119 0.000060 -0.000005 -0.000004 -8.379259 71.020927
[L_front_hand03_02]
19 71.020905 -0.000060 0.000060 0.000015 -0.000040 -8.379267 71.020905
20 71.020905 -0.000060 0.000060 0.000015 -0.000040 -8.379267 71.020905
[R_forearm]
19 322.776428 -0.000060 0.000030 0.209842 -0.000816 -90.836075 322.776428
20 322.776428 -0.000060 0.000030 0.209840 -0.001211 -90.620613 322.776428
[R_front_hand]
19 238.847015 -0.006795 2.210259 -1.694051 -0.345738 -90.274780 238.857239
20 238.847015 -0.006795 2.210259 -1.689111 -0.368041 -91.034340 238.857239
[R_weapon_bone]
19 155.664093 0.002503 -0.000030 0.003247 0.001733 -109.795204 155.664078
20 155.664093 0.002503 -0.000030 0.003258 0.001713 -109.092422 155.664078
[R_front_hand01_01]
19 87.624611 14.231146 22.918642 -116.960213 3.496675 -1.324139 91.683487
20 87.624611 14.231146 22.918642 -116.960213 3.496675 -1.324139 91.683487
[R_front_hand02_01]
19 89.356956 14.367283 -19.491137 118.419647 -4.257089 0.609827 92.579636
20 89.356956 14.367283 -19.491137 118.419647 -4.257089 0.609827 92.579636
[R_front_hand03_01]
19 87.286232 -22.307278 -0.143439 -0.387970 -0.231462 4.232001 90.091743
20 87.286232 -22.307278 -0.143439 -0.387970 -0.231462 4.232001 90.091743
[R_front_hand01_02]
19 71.020905 0.000060 0.000119 -0.000005 -0.000020 8.379271 71.020905
20 71.020905 0.000060 0.000119 -0.000005 -0.000020 8.379271 71.020905
[R_front_hand02_02]
19 71.020844 -0.000030 -0.000119 0.000000 -0.000021 8.379271 71.020836
20 71.020844 -0.000030 -0.000119 0.000000 -0.000021 8.379271 71.020836
[R_front_hand03_02]
19 71.020905 0.000000 0.000030 -0.000001 -0.000020 8.379275 71.020905
20 71.020905 0.000000 0.000030 -0.000001 -0.000020 8.379275 71.020905
[null_rope01_connect]
19 328.732483 0.000000 -0.000238 -141.723999 -70.320290 -168.761307 328.732483
20 328.732483 0.000000 -0.000238 -139.576019 -66.359856 -175.699600 328.732483
[Rope1_Seg01]
19 0.000037 -0.000057 0.000078 117.948242 -40.450455 152.012512 0.000104
20 0.000035 -0.000056 0.000083 121.327660 -37.601486 144.528320 0.000106
[Rope1_Seg02]
19 139.999863 -0.000179 0.000000 -6.021734 -20.868811 -2.297993 139.999863
20 139.999863 -0.000179 0.000000 -9.859287 -25.289204 -3.052730 139.999863
[Rope1_Seg03]
19 139.999924 0.000060 -0.000060 -23.233038 -48.934437 -19.722830 139.999924
20 139.999924 0.000060 -0.000060 -25.366739 -44.624142 -22.247444 139.999924
[Rope1_Seg04]
19 139.999924 -0.000060 -0.000119 -15.031252 -20.786642 -14.766458 139.999924
20 139.999924 -0.000060 -0.000119 -11.949457 -15.603696 -10.618986 139.999924
[Rope1_Seg05]
19 139.999832 0.000119 -0.000060 -3.208418 -6.978180 2.006628 139.999832
20 139.999832 0.000119 -0.000060 -2.874627 -5.387297 0.617333 139.999832
[Rope1_Seg06]
19 139.999954 0.000119 -0.000060 -2.921066 -3.256914 -1.459503 139.999954
20 139.999954 0.000119 -0.000060 -2.292754 -2.436826 -1.453739 139.999954
[Rope1_Seg07]
19 139.999985 0.000060 0.000000 -1.841595 -1.913975 -1.001512 139.999985
20 139.999985 0.000060 0.000000 -1.425780 -1.449486 -0.944873 139.999985
[Rope1_Seg09]
19 121.602913 0.000119 -0.000089 -89.793175 -1.359789 0.847147 121.602913
20 121.602913 0.000119 -0.000089 -89.793175 -1.359789 0.847147 121.602913
[L_mid_hand01]
19 103.859421 1.038730 8.195221 104.352036 0.341479 -0.444583 104.187431
20 103.859421 1.038730 8.195221 104.352036 0.341479 -0.444583 104.187431
[L_mid_hand02]
19 105.572853 -4.139662 -10.864139 -135.608444 3.905687 -3.381056 106.211075
20 105.572853 -4.139662 -10.864139 -135.608444 3.905687 -3.381056 106.211075
[L_mid_hand03]
19 104.641464 17.579376 -3.913581 -18.761518 -0.324361 2.942912 106.179977
20 104.641464 17.579376 -3.913581 -18.761515 -0.324361 2.942912 106.179977
[null_rope02_connect]
19 328.732849 0.000179 -0.000119 -122.334976 49.450081 8.669732 328.732849
20 328.732849 0.000179 -0.000119 -122.940536 44.208710 12.413721 328.732849
[Rope2_Seg01]
19 0.000133 0.000114 -0.000078 -28.584475 -39.047272 12.719706 0.000192
20 0.000132 0.000114 -0.000083 -32.846970 -34.051765 17.567125 0.000193
[Rope2_Seg02]
19 139.999741 -0.000060 -0.000119 -2.748063 5.453037 33.205338 139.999756
20 139.999741 -0.000060 -0.000119 -1.596732 7.571589 43.378811 139.999756
[Rope2_Seg03]
19 140.000107 0.000030 0.000000 9.250463 9.965592 58.091331 140.000107
20 140.000107 0.000030 0.000000 7.832332 4.825488 47.265572 140.000107
[Rope2_Seg04]
19 139.999802 0.000000 -0.000060 2.495925 -13.687390 20.898005 139.999802
20 139.999802 0.000000 -0.000060 1.939575 -14.512800 16.558887 139.999802
[Rope2_Seg05]
19 139.999985 -0.000060 0.000119 2.218839 -7.012528 7.240168 139.999985
20 139.999985 -0.000060 0.000119 2.281866 -4.696507 5.792220 139.999985
[Rope2_Seg06]
19 139.999893 -0.000030 -0.000119 2.117667 -1.946105 3.627263 139.999893
20 139.999893 -0.000030 -0.000119 1.768940 -1.643678 3.048597 139.999893
[Rope2_Seg07]
19 139.999893 0.000060 -0.000060 1.430624 -1.069564 2.194481 139.999893
20 139.999893 0.000060 -0.000060 1.198015 -0.943141 1.891191 139.999893
[Rope2_Seg09]
19 121.338966 0.000089 -0.000060 33.793236 -1.359788 -0.847141 121.338966
20 121.338966 0.000089 -0.000060 33.793236 -1.359788 -0.847141 121.338966
[R_mid_hand01]
19 104.680779 11.144459 -10.335981 -47.384258 2.963522 5.452604 105.778534
20 104.680779 11.144459 -10.335981 -47.384258 2.963522 5.452604 105.778534
[R_mid_hand02]
19 104.070427 2.443552 8.231699 75.626297 -2.250001 1.111093 104.424065
20 104.070427 2.443552 8.231699 75.626297 -2.250001 1.111093 104.424065
[R_mid_hand03]
19 106.028137 -11.221827 -5.996406 -164.381927 2.495983 -6.140520 106.788818
20 106.028137 -11.221827 -5.996406 -164.381927 2.495984 -6.140522 106.788818
[spine02]
19 129.756927 0.001550 0.000119 -1.110892 -3.918630 7.859902 129.756927
20 129.756927 0.001550 0.000119 -1.054020 -3.928057 7.064553 129.756927
[spine03]
19 78.928299 0.032702 -1.830736 -0.661045 4.489816 -17.409374 78.949532
20 78.914291 0.035158 -1.967641 -0.628143 4.464648 -17.057356 78.938828
[pelvis]
19 169.435242 0.051022 0.000000 -4.345024 -2.119888 7.884501 169.435257
20 169.435242 0.051022 0.000000 -4.071610 -2.022072 7.281818 169.435257
[null_rope03_connect]
19 -1.257226 -2.466202 137.391083 122.860832 -84.639366 -20.732140 137.418976
20 -1.257226 -2.466202 137.391083 118.728043 -84.817604 -16.040249 137.418976
[null_rope04_connect]
19 -1.259640 -2.480268 -137.844437 122.860832 -84.639366 -20.732140 137.872513
20 -1.259640 -2.480268 -137.844437 118.728043 -84.817604 -16.040249 137.872513
[Rope3_Seg01]
19 -0.000043 0.000036 -0.000005 -131.506134 -52.971954 -84.685394 0.000056
20 -0.000043 0.000032 -0.000004 -131.482910 -52.479008 -84.619232 0.000053
[Rope3_Seg02]
19 139.999924 -0.000119 0.000060 -0.683408 1.767710 -4.298382 139.999924
20 139.999924 -0.000119 0.000060 -0.638956 1.476905 -4.385015 139.999924
[Rope3_Seg03]
19 139.999924 -0.000119 0.000119 -1.338522 2.522388 -5.967134 139.999924
20 139.999924 -0.000119 0.000119 -1.262110 2.090048 -6.004780 139.999924
[Rope3_Seg04]
19 139.999924 0.000119 0.000000 -2.816872 3.813707 -8.618815 139.999924
20 139.999924 0.000119 0.000000 -2.646533 3.108553 -8.530447 139.999924
[Rope3_Seg05]
19 139.999924 -0.000238 0.000060 -6.609049 5.128984 -15.293408 139.999924
20 139.999924 -0.000238 0.000060 -5.724160 3.105101 -14.866790 139.999924
[Rope3_Seg06]
19 139.999893 -0.000119 -0.000060 -11.738923 10.571983 -14.730650 139.999893
20 139.999893 -0.000119 -0.000060 -11.708152 9.301959 -14.558005 139.999893
[Rope3_Seg07]
19 139.999771 0.000060 -0.000119 -5.542125 10.644536 -1.842808 139.999771
20 139.999771 0.000060 -0.000119 -6.207723 11.538879 -1.352937 139.999771
[Rope3_Seg08]
19 139.999985 -0.000060 0.000000 -2.229045 6.188368 -0.490377 139.999985
20 139.999985 -0.000060 0.000000 -2.228760 6.362616 0.066031 139.999985
[Rope3_Seg09]
19 90.185997 -0.000179 -0.000060 89.793228 -1.359877 -0.847183 90.185997
20 90.185997 -0.000179 -0.000060 89.793228 -1.359877 -0.847183 90.185997
[R_rear_hand01]
19 103.366196 -6.073594 -10.757982 -156.049316 6.070419 -2.795869 104.101845
20 103.366196 -6.073594 -10.757982 -156.049316 6.070419 -2.795869 104.101845
[R_rear_hand02]
19 100.509819 12.039542 -7.992327 -38.708435 1.958051 5.461186 101.543350
20 100.509819 12.039542 -7.992327 -38.708439 1.958052 5.461187 101.543350
[R_rear_hand03]
19 101.539970 5.215704 5.435467 84.307625 -2.361032 4.099037 101.819031
20 101.539970 5.215704 5.435467 84.307625 -2.361032 4.099037 101.819031
[Rope4_Seg01]
19 -0.000015 -0.000022 -0.000116 32.489105 -55.666386 -76.273338 0.000118
20 -0.000016 -0.000027 -0.000118 33.573170 -56.396656 -77.578972 0.000122
[Rope4_Seg02]
19 139.999985 0.000060 0.000119 0.125032 -5.877515 0.876737 139.999985
20 139.999985 0.000060 0.000119 0.178549 -5.590271 0.636652 139.999985
[Rope4_Seg03]
19 139.999924 0.000000 -0.000238 0.788612 -9.709797 1.488334 139.999924
20 139.999924 0.000000 -0.000238 0.756288 -8.738325 1.030177 139.999924
[Rope4_Seg04]
19 139.999985 0.000000 0.000119 3.722391 -18.814291 1.847624 139.999985
20 139.999985 0.000000 0.000119 2.816886 -15.592531 0.879230 139.999985
[Rope4_Seg05]
19 139.999802 -0.000060 -0.000119 16.749741 -31.080360 2.477288 139.999802
20 139.999802 -0.000060 -0.000119 11.750996 -27.871113 -0.900896 139.999802
[Rope4_Seg06]
19 139.999924 0.000000 0.000060 25.726168 -11.436685 19.570011 139.999924
20 139.999924 0.000000 0.000060 22.869333 -11.793288 17.317028 139.999924
[Rope4_Seg07]
19 139.999802 0.000000 0.000000 11.224220 8.276728 18.771492 139.999802
20 139.999802 0.000000 0.000000 10.252928 8.178351 17.226219 139.999802
[Rope4_Seg08]
19 139.999924 0.000000 0.000119 2.438923 2.947924 9.422422 139.999924
20 139.999924 0.000000 0.000119 2.227467 2.240735 8.294976 139.999924
[Rope4_Seg09]
19 90.185791 0.000060 0.000060 -135.617828 2.228885 0.850567 90.185791
20 90.185791 0.000060 0.000060 -135.617828 2.228885 0.850567 90.185791
[L_rear_hand01]
19 101.696655 -8.392275 -7.654577 -38.746338 0.246096 177.290207 102.329041
20 101.696655 -8.392275 -7.654577 -38.746349 0.246096 177.290207 102.329041
[L_rear_hand02]
19 102.726799 -1.568258 5.773216 84.315163 -1.142796 176.247437 102.900848
20 102.726799 -1.568258 5.773216 84.315163 -1.142796 176.247437 102.900848
[L_rear_hand03]
19 104.552910 9.721220 -10.420293 -155.747955 -4.630845 179.564758 105.519653
20 104.552910 9.721220 -10.420293 -155.747955 -4.630845 179.564758 105.519653
